<svg width="45" height="46" viewBox="0 0 45 46" fill="none" xmlns="http://www.w3.org/2000/svg">
<path d="M42.19 20.4347C42.6536 20.6585 42.8853 20.7704 43.0484 20.8749C44.3419 21.7044 44.3952 23.0896 43.1693 24.0161C43.0147 24.1329 42.7923 24.2623 42.3473 24.521L23.2822 32.4447L8.55358 44.1021C8.32954 44.2794 8.09308 44.4409 7.84577 44.584C7.39762 44.8433 7.13801 44.9876 6.93992 45.0692C4.92013 45.9021 2.33828 45.1785 1.8874 43.6532C1.84971 43.5257 1.83238 43.3459 1.81786 43.0544C1.80179 42.7317 1.81757 42.4081 1.85722 42.0875L4.08546 24.0627L0.46756 6.02635C0.40479 5.71342 0.365073 5.39604 0.356282 5.07699C0.348146 4.78169 0.351456 4.59949 0.379427 4.46857C0.711747 2.9131 3.23035 1.99321 5.30818 2.6684C5.56264 2.75109 5.92023 2.92373 6.63542 3.26902L22.4127 13.8518L42.19 20.4347Z" fill="#F2C94C"/>
<circle cx="15.5" cy="23.5" r="11.5" fill="#333333"/>
<path d="M15.3238 29.1602C14.6038 29.1694 13.8467 29.0889 13.0525 28.919C12.2583 28.7491 11.6258 28.5531 11.1549 28.331L11.3788 26.114C12.9481 26.8382 14.3627 27.1923 15.6226 27.1763C16.3306 27.1673 16.8809 27.0283 17.2735 26.7593C17.6661 26.4903 17.8591 26.0918 17.8524 25.5639C17.8472 25.1559 17.735 24.8273 17.5159 24.5781C17.3087 24.3287 17 24.1166 16.5897 23.9418C16.1793 23.755 15.5705 23.5347 14.7632 23.2809C13.9801 23.0388 13.3287 22.777 12.8091 22.4956C12.2893 22.2021 11.8706 21.8294 11.5528 21.3774C11.2469 20.9132 11.0895 20.3332 11.0807 19.6372C11.0673 18.5813 11.4465 17.7245 12.2182 17.0666C13.0019 16.4086 14.1257 16.0704 15.5896 16.0518C16.3096 16.0427 17.0185 16.1117 17.7164 16.2589C18.4143 16.406 19.0348 16.5962 19.5778 16.8293L19.3892 18.9919C18.6648 18.653 17.9896 18.4036 17.3635 18.2435C16.7495 18.0833 16.1245 18.0072 15.4885 18.0152C14.7686 18.0244 14.2122 18.1574 13.8194 18.4144C13.4265 18.6594 13.2332 19.0339 13.2396 19.5379C13.2442 19.8978 13.344 20.1966 13.539 20.4342C13.7459 20.6595 14.0243 20.848 14.3742 20.9996C14.7362 21.151 15.2545 21.3305 15.9292 21.5379C17.3747 21.9637 18.4372 22.4722 19.1168 23.0637C19.8082 23.6429 20.1604 24.4485 20.1735 25.4805C20.1864 26.5004 19.8253 27.363 19.0902 28.0684C18.3551 28.7738 17.0996 29.1377 15.3238 29.1602Z" fill="#F2C94C"/>
</svg>
