<svg width="739" height="528" viewBox="0 0 739 528" fill="none" xmlns="http://www.w3.org/2000/svg">
<rect x="162" y="123" width="223" height="141" fill="#C4C4C4"/>
<rect x="162" y="123" width="223" height="141" fill="#60EDAA"/>
<rect x="194" y="152" width="159" height="91" fill="#134370"/>
<path d="M244.734 206.016L262.547 171.75H272.766L249.234 214.547V240H240.234V214.547L216.703 171.75H227.016L244.734 206.016ZM300.938 209.578C293.219 207.359 287.594 204.641 284.062 201.422C280.562 198.172 278.812 194.172 278.812 189.422C278.812 184.047 280.953 179.609 285.234 176.109C289.547 172.578 295.141 170.812 302.016 170.812C306.703 170.812 310.875 171.719 314.531 173.531C318.219 175.344 321.062 177.844 323.062 181.031C325.094 184.219 326.109 187.703 326.109 191.484H317.062C317.062 187.359 315.75 184.125 313.125 181.781C310.5 179.406 306.797 178.219 302.016 178.219C297.578 178.219 294.109 179.203 291.609 181.172C289.141 183.109 287.906 185.812 287.906 189.281C287.906 192.062 289.078 194.422 291.422 196.359C293.797 198.266 297.812 200.016 303.469 201.609C309.156 203.203 313.594 204.969 316.781 206.906C320 208.812 322.375 211.047 323.906 213.609C325.469 216.172 326.25 219.188 326.25 222.656C326.25 228.188 324.094 232.625 319.781 235.969C315.469 239.281 309.703 240.938 302.484 240.938C297.797 240.938 293.422 240.047 289.359 238.266C285.297 236.453 282.156 233.984 279.938 230.859C277.75 227.734 276.656 224.188 276.656 220.219H285.703C285.703 224.344 287.219 227.609 290.25 230.016C293.312 232.391 297.391 233.578 302.484 233.578C307.234 233.578 310.875 232.609 313.406 230.672C315.938 228.734 317.203 226.094 317.203 222.75C317.203 219.406 316.031 216.828 313.688 215.016C311.344 213.172 307.094 211.359 300.938 209.578Z" fill="#60EDAA"/>
</svg>
