<svg width="50" height="50" viewBox="0 0 89 96" fill="none" xmlns="http://www.w3.org/2000/svg">
<path d="M78.5142 41.8562C82.9029 44.5795 82.9318 50.9555 78.5678 53.7184L33.2493 82.4107C28.6005 85.3539 22.5298 82.0301 22.5049 76.528L22.2473 19.5544C22.2224 14.0524 28.2629 10.6738 32.9381 13.5749L78.5142 41.8562Z" fill="#E9B701"/>
<ellipse cx="43.5" cy="47.5" rx="20.5" ry="22.5" fill="#0E0029"/>
<path d="M43.621 60.504C42.181 60.504 40.669 60.324 39.085 59.964C37.501 59.604 36.241 59.196 35.305 58.74L35.809 54.312C38.929 55.8 41.749 56.544 44.269 56.544C45.685 56.544 46.789 56.28 47.581 55.752C48.373 55.224 48.769 54.432 48.769 53.376C48.769 52.56 48.553 51.9 48.121 51.396C47.713 50.892 47.101 50.46 46.285 50.1C45.469 49.716 44.257 49.26 42.649 48.732C41.089 48.228 39.793 47.688 38.761 47.112C37.729 46.512 36.901 45.756 36.277 44.844C35.677 43.908 35.377 42.744 35.377 41.352C35.377 39.24 36.157 37.536 37.717 36.24C39.301 34.944 41.557 34.296 44.485 34.296C45.925 34.296 47.341 34.452 48.733 34.764C50.125 35.076 51.361 35.472 52.441 35.952L52.009 40.272C50.569 39.576 49.225 39.06 47.977 38.724C46.753 38.388 45.505 38.22 44.233 38.22C42.793 38.22 41.677 38.472 40.885 38.976C40.093 39.456 39.697 40.2 39.697 41.208C39.697 41.928 39.889 42.528 40.273 43.008C40.681 43.464 41.233 43.848 41.929 44.16C42.649 44.472 43.681 44.844 45.025 45.276C47.905 46.164 50.017 47.208 51.361 48.408C52.729 49.584 53.413 51.204 53.413 53.268C53.413 55.308 52.669 57.024 51.181 58.416C49.693 59.808 47.173 60.504 43.621 60.504Z" fill="#E9B701"/>
</svg>
